<?xml version="1.0" encoding="UTF-8" standalone="no"?>
<svg
   version="1.1"
   width="397"
   height="397"
   id="svg18"
   sodipodi:docname="logo-only.svg"
   inkscape:version="1.4.2 (ebf0e940, 2025-05-08)"
   xmlns:inkscape="http://www.inkscape.org/namespaces/inkscape"
   xmlns:sodipodi="http://sodipodi.sourceforge.net/DTD/sodipodi-0.dtd"
   xmlns="http://www.w3.org/2000/svg"
   xmlns:svg="http://www.w3.org/2000/svg">
  <defs
     id="defs18" />
  <sodipodi:namedview
     id="namedview18"
     pagecolor="#ffffff"
     bordercolor="#000000"
     borderopacity="0.25"
     inkscape:showpageshadow="2"
     inkscape:pageopacity="0.0"
     inkscape:pagecheckerboard="0"
     inkscape:deskcolor="#d1d1d1"
     inkscape:zoom="0.80689451"
     inkscape:cx="244.76558"
     inkscape:cy="194.57314"
     inkscape:window-width="1176"
     inkscape:window-height="581"
     inkscape:window-x="230"
     inkscape:window-y="63"
     inkscape:window-maximized="0"
     inkscape:current-layer="svg18" />
  <path
     d="M 0,0 C 19.130002,11.182518 28.991051,34.506108 34.450439,54.894287 34.631794,55.589172 34.813149,56.284058 35,57 c 0.274933,1.012357 0.274933,1.012357 0.55542,2.045166 1.702558,6.812582 1.997116,13.651671 2.38208,20.642334 C 40.447206,120.94502 40.447206,120.94502 62,155 c 11.075399,9.47291 25.551646,15.72361 38.9375,21.1875 22.75759,9.30666 22.75759,9.30666 29.21484,19.66016 1.99397,5.06302 1.85255,11.3807 0.008,16.46875 -1.22343,2.10495 -2.55439,3.85469 -4.16016,5.68359 -0.48855,0.58137 -0.97711,1.16273 -1.48047,1.76172 -9.38384,9.55562 -24.687917,13.36236 -36.95703,17.67578 C 65.11906,245.26791 65.11906,245.26791 46,259 c -0.650977,0.6123 -1.301953,1.22461 -1.972656,1.85547 -5.676317,5.84504 -8.295284,12.91439 -10.824219,20.55078 C 31.661802,285.99597 30.347118,288.68154 26,291 21.506519,291.92969 19.408157,291.80985 15.425781,289.51953 12.524351,287.4459 9.7604927,285.25755 7,283 6.1002344,282.30262 5.2004687,281.60523 4.2734375,280.88672 -27.591372,255.77137 -46.118556,220.94817 -51.268066,180.91606 c -0.831691,-7.4146 -0.910415,-14.78865 -0.935059,-22.24419 -0.0028,-0.66735 -0.0057,-1.33471 -0.0086,-2.0223 -0.01487,-3.52121 -0.02418,-7.04239 -0.02854,-10.56363 -0.0055,-3.62013 -0.02964,-7.23988 -0.05797,-10.85988 -0.01866,-2.80365 -0.02383,-5.6072 -0.02536,-8.4109 -0.0045,-1.97971 -0.02308,-3.95937 -0.04197,-5.939 0.003,-1.20856 0.006,-2.41711 0.0091,-3.66229 -0.0036,-1.05794 -0.0073,-2.11588 -0.01105,-3.20587 0.528151,-4.32302 2.146402,-7.65123 5.054993,-10.883 3.407677,-1.65779 6.637131,-1.66571 10.3125,-1.125 2.820631,1.22636 4.418787,2.12221 6.116852,4.68675 1.186465,3.10773 1.135067,5.74905 1.138519,9.07521 0.0036,0.67232 0.0072,1.34465 0.01097,2.03734 0.0069,1.45898 0.0094,2.91799 0.0081,4.37699 -9.71e-4,2.32865 0.01205,4.65685 0.02898,6.98544 0.04604,6.62094 0.07078,13.24183 0.07748,19.86293 -0.15535,25.76422 -0.15535,25.76422 4.619141,50.97534 0.382141,1.35501 0.763816,2.71015 1.14502,4.06543 5.264318,17.97512 15.5133484,33.09778 27.97998,46.87207 0.478645,0.53206 0.95729,1.06412 1.4504394,1.6123 C 9.0529307,256.28869 12.771571,259.13711 17,262 c 0.256523,-0.53367 0.513047,-1.06734 0.777344,-1.61719 C 32.358618,232.00579 65.1252,220.89717 93.526855,211.63672 98.769932,209.90467 103.30717,207.92098 108,205 c -2.88284,-2.31104 -5.7083,-3.91299 -9.078125,-5.41797 -0.988469,-0.44569 -1.976938,-0.89139 -2.995361,-1.35058 C 94.878264,197.76319 93.830015,197.29494 92.75,196.8125 56.781226,180.51276 56.781226,180.51276 43,167 42.226562,166.26266 41.453125,165.52531 40.65625,164.76562 30.163982,154.05776 25.399129,140.27199 20.9646,126.24536 15.920133,110.72215 6.0097643,98.438524 -8,90 -18.254653,84.789975 -28.62447,81.832052 -39.9375,80.0625 -44.258298,79.320545 -46.91826,78.28719 -50,75 c -1.752854,-3.505707 -1.527616,-7.174782 -1,-11 1.625,-3.0625 1.625,-3.0625 5,-5 4.718672,-0.572329 9.269323,-0.358461 14,0 1.425059,0.09088 1.425059,0.09088 2.878906,0.183594 C -14.536445,60.864044 4.4249158,68.424916 15,79 16.628522,60.181527 7.4591268,39.252835 -4.4101562,25.132812 -5.9239349,23.47381 -7.4579532,21.832841 -9.0195313,20.21875 -11.85649,17.040461 -13.780429,14.289978 -14.5,10.0625 -13.795899,5.7498829 -12.039071,4.1114303 -9,1 -5.8904662,-0.5547669 -3.4373324,-0.28644437 0,0 Z"
     fill="#86adab"
     transform="translate(90,43)"
     id="path3"
     style="display:inline" />
  <path
     id="path2-4"
     style="display:inline;fill:#a4bca5;fill-opacity:1;fill-rule:nonzero;stroke:none;stroke-opacity:1"
     inkscape:highlight-color="#aaaaaa"
     d="m 223.72421,24.428395 c -1.8453,0.0951 -3.6502,0.46769 -5.3789,1.33203 -4.23492,4.69297 -4.55535,8.86323 -4.90821,15.0625 -0.31771,7.13448 -0.60459,14.34236 -1.70117,21.40625 -2.77234,13.92329 -9.0438,24.09084 -20.57812,32.46875 -3.80913,2.64821 -7.54349,5.349815 -11.2168,8.181645 -0.60588,0.4694 -1.19514,0.92525 -1.7832,1.38085 -1.11863,0.8644 -2.23714,1.72896 -3.35547,2.59375 -0.83539,0.64813 -1.64621,1.27719 -2.45703,1.90625 -2.16011,-22.709635 -7.15276,-44.360515 -19.62305,-63.792955 -0.44651,-0.68656 -0.88108,-1.35317 -1.31445,-2.01954 -3.35912,-5.23985 -7.06122,-11.27492 -13.51172,-12.74609 -1.13033,0.0612 -1.13033,0.0612 -2.23828,0.12109 -2.26172,0.0664 -2.26172,0.0664 -4.3125,0.4375 -3.25994,2.1733 -4.33238,3.50594 -6,7 -0.72945,5.8356 -0.72945,5.8356 5.05078,13.83985 5.08824,6.96886 9.38256,13.81088 12.22656,22.03515 0.24604,0.72234 0.48387,1.42392 0.72266,2.125 6.49551,17.78322 6.66958,35.470215 6.54101,54.195315 -0.13761,15.65268 -0.0338,31.80686 8.02149,45.80468 16.35077,20.87421 41.90612,28.65034 66.84179,34.27149 5.09154,1.13913 10.13777,2.36497 15.16797,3.75195 0.8046,0.22536 1.58431,0.44532 2.36524,0.66406 5.78963,1.61269 11.5628,3.26616 17.04586,5.6211 -3.43147,-2.17634 -6.81685,-5.05182 -9.87077,-8.56987 -0.88559,-0.99968 -1.29323,-1.32579 -2.1967,-2.34565 -2.96403,-5.49239 -4.23759,-10.69893 -4.56042,-16.61183 -6.10267,-2.09524 -11.59783,-4.63362 -16.6211,-8.79296 -2.40917,-2.76185 -2.92109,-4.99007 -3.22265,-8.58204 1.16815,-5.75667 4.67265,-9.97591 8.8496,-13.88086 0.55732,-0.49729 1.09776,-0.98022 1.63868,-1.46289 32.10937,-28.83939 76.87893,-38.11904 118.64843,-41.48437 5.0134,-0.37736 7.78328,-0.72398 11.44141,-4.21484 3.63279,-4.3357 3.63278,-4.3357 3.58398,-15.154296 -0.0377,-1.340479 -0.0748,-2.680969 -0.11132,-4.021489 -0.0129,-8.80459 -0.18269,-16.95257 -3.5625,-25.1875 -6.73786,-13.78629 -19.51868,-19.62826 -33.35938,-24.4375 -1.13123,-0.38283 -2.23016,-0.75342 -3.32812,-1.125 -8.09185,-2.76058 -16.15585,-5.46789 -24.45703,-7.53125 -1.94701,-0.45765 -1.94701,-0.45765 -3.85547,-0.90625 -2.82396,-0.68879 -5.64698,-1.37718 -8.47461,-2.05078 -1.00705,-0.23807 -1.98546,-0.46815 -2.96289,-0.69922 -4.28767,-1.03567 -8.52096,-2.10015 -12.92969,-2.42382 -4.78985,-0.0648 -6.66134,0.28773 -10.21094,3.52539 -2.96062,3.64536 -2.96062,3.64535 -3.16797,11.96093 -0.003,2.03394 -0.0207,4.06792 -0.0547,6.10157 -0.0199,1.01468 -0.0393,1.99953 -0.0586,2.98437 -0.0328,1.86749 -0.0785,3.73482 -0.14062,5.60156 -2.47298,30.34627 -14.48684,57.892245 -36.95118,78.566405 -3.38974,3.10348 -6.78548,6.19648 -10.04882,9.43359 -8.1742,8.92153 -12.4933,16.99551 -12.10547,29.12891 0.0533,0.9449 0.0533,0.9449 0.10547,1.87109 -8.46443,-2.58216 -17.37643,-6.84693 -22.82032,-14.0625 -4.1886,-6.87929 -6.58039,-13.86131 -5.17968,-21.9375 9.29327,-16.2952 9.29327,-16.2952 25.0625,-27.0625 6.19654,-4.23165 12.10827,-8.30545 17.19531,-13.88281 0.59235,-0.69859 1.16727,-1.37664 1.74219,-2.05469 0.94293,-1.037608 0.94292,-1.037618 1.86718,-2.054675 15.27287,-17.89483 17.84731,-45.32268 16.13282,-67.94532 -1.50868,-3.01736 -3.1297,-4.20606 -6,-6 -1.89012,-0.24483 -3.77581,-0.42715 -5.6211,-0.33203 z m 58.6211,29.33203 c 49.2024,9.44289 49.20239,9.44288 60.14843,22.57813 2.3501,4.34323 2.31453,7.46426 2.10157,12.29687 -0.018,0.78375 -0.0361,1.5675 -0.0547,2.375 -0.0468,1.91721 -0.11849,3.83377 -0.19531,5.75 -6.52665,1.16195 -13.03632,2.135589 -19.625,2.874998 -17.72961,2.154227 -34.12622,7.480387 -50.95508,13.361327 -2.41992,0.76269 -2.41992,0.76367 -4.41992,0.76367 0.58781,-1.70156 0.58781,-1.70156 1.1875,-3.4375 6.17502,-18.671375 9.88685,-36.988815 11.8125,-56.562495 z"
     sodipodi:nodetypes="ccccccccccccccccccccccccccccccccccccccccccccccccccccccccccccscccccccccccc"
     inkscape:label="path2" />
  <path
     d="m 0,0 c 1.8572662,3.7145323 1.5850109,7.9557942 1,12 -2.1902292,2.824243 -3.8301721,4.415086 -7,6 -2.6690399,0.160857 -5.328628,0.278001 -8,0.375 -27.060932,1.292236 -65.817896,8.524685 -85,29.625 -0.865594,2.40862 -0.865594,2.40862 0,5 2.394688,2.009625 5.1148,3.36653 7.875,4.8125 1.572122,0.87595 3.141154,1.757467 4.707031,2.644531 l 2.311035,1.307129 C -72.964604,68.299789 -64.385926,77.811742 -60,90 l 1.25,3.1875 c 1.739151,8.84068 1.49322,18.20446 -1.25,26.8125 l -0.742187,2.38281 C -66.524469,138.70624 -80.657103,151.61591 -94,162 c -11.36464,7.95706 -17.91767,16.64821 -18.86523,18.68975 -0.67101,2.08983 0.42133,2.49026 2.76413,3.09964 5.5651,1.2265 7.27818,0.48739 12.5386,-1.60189 C -85.852438,175.8862 -75.040815,167.66236 -65,159 c 0.815977,-0.68191 1.631953,-1.36383 2.472656,-2.06641 C -52.001929,147.87607 -42.802338,137.12298 -36,125 l 1.765625,-3.125 c 3.556835,-6.68066 6.251111,-13.36412 8.546875,-20.5625 l 0.734619,-2.300781 c 2.632665,-8.659616 4.077181,-16.990324 4.156006,-26.058594 0.0099,-1.060191 0.0099,-1.060191 0.02006,-2.1418 0.02041,-2.92979 0.03313,-5.858594 0.0068,-8.788376 -0.09539,-13.954924 -0.09539,-13.954924 3.531739,-18.495605 1.915591,-1.739118 3.15409,-2.498174 5.617187,-3.351563 C -6.5694812,40.492072 -3.5838553,41.09034 0,45 c 2.0112253,3.243299 2.2568419,5.763085 2.265625,9.550781 0.02386,3.44556 -0.016445,6.89117 -0.03833,10.33667 C 2.1220224,73.439226 1.6725139,81.593647 0,90 l -0.45654297,2.367187 C -3.0338435,105.39976 -6.9550657,117.17135 -13,129 c -0.485574,0.95278 -0.485574,0.95278 -0.980957,1.9248 -11.833214,22.77608 -30.871894,43.74113 -63.931641,65.32105 C -88.817733,203.22727 -98.803593,207.33297 -112,206 c -7.84909,-1.81768 -14.8703,-5.04225 -19.27734,-12.02344 -3.27352,-6.26745 -4.98638,-12.30992 -3.07422,-19.37109 2.20633,-7.0097 7.24423,-12.2328 12.08984,-17.49219 4.02544,-4.24955 8.39059,-7.85889 13.01172,-11.42578 18.066445,-13.99968 21.159005,-18.97067 27.335938,-29.54687 C -79.253331,111.01444 -79.125082,105.58771 -80,100 -83.409675,89.40995 -89.75223,83.433326 -99.3125,78.179687 -99.821373,77.92165 -109.93022,72.747775 -115.625,66.1875 c -0.88559,-0.999668 -0.88559,-0.999668 -1.78906,-2.019531 C -121.91281,58.018205 -122.22643,48.593681 -121,44 c 3.96197,-12.787953 14.87255,-19.789508 26,-26 9.624416,-5.038081 19.586843,-9.8470123 30,-13 l 1.883301,-0.5761719 C -53.082332,1.4128144 -42.969143,-0.67182271 -32.625,-2.3125 l 3.201416,-0.5195313 C -7.8416835,-6.0594827 -7.8416835,-6.0594827 0,0 Z"
     fill="#6f818f"
     id="path4"
     transform="translate(364,145)"
     style="display:inline"
     sodipodi:nodetypes="ccccccccccccccccccccccccccccccccccccccccccccccccccccc" />
  <path
     d="M 0,0 C 3.0934461,2.8244508 3.8898296,4.8982961 4.3125,9.125 3.2266174,22.589945 -7.3567515,31.756371 -17,40 c -1.86955,1.527528 -3.744435,3.048553 -5.625,4.5625 C -31.668985,51.916383 -40.211563,59.634688 -44,71 c -0.779796,9.147608 0.213544,16.903895 6.0625,24.1875 8.29252,8.67102 18.725171,11.6686 29.9375,14.8125 -1.31332,2.62664 -2.354815,2.69951 -5.078125,3.69141 -0.831445,0.30486 -1.662891,0.60972 -2.519531,0.92382 -0.875274,0.3126 -1.750547,0.6252 -2.652344,0.94727 -0.859805,0.31646 -1.719609,0.63293 -2.605469,0.95898 -8.04137,2.91794 -16.765216,5.63417 -25.082031,2.16602 -10.825476,-6.1582 -17.960771,-18.08153 -21.4375,-29.75 -1.966147,-12.386726 0.268318,-22.518979 7.652344,-32.769531 C -51.75652,46.142559 -41.655918,39.831067 -31,33 -11.36723,21.28183 -11.36723,21.28183 -0.37890625,2.234375 -0.25386719,1.4970312 -0.12882812,0.7596875 0,0 Z"
     fill="#8aabaf"
     transform="translate(244,256)"
     id="path6"
     style="display:inline" />
</svg>
